# xmcd CD database file
#
# Track frame offsets:
#	150
#	21047
#	42680
#	64890
#	87440
#	107035
#	129890
#	149167
#	170030
#	191822
#
# Disc length: 2799 seconds
#
# Revision: 0
# Processed by: cddbd v1.5PL3 Copyright (c) Steve Scherf et al.
# Submitted via: CDex 1.51
#
DISCID=980aed0a
DTITLE=Keiko Matsui - Summer Selection
DYEAR=2004
DGENRE=Jazz
TTITLE0=Rainy Season
TTITLE1=Sail South
TTITLE2=Three Silhouettes
TTITLE3=Midnight Stone
TTITLE4=From My Window
TTITLE5=Moonlight Sailor
TTITLE6=Souvenir
TTITLE7=Garden
TTITLE8=Secret Forest
TTITLE9=Uncharted Summer
EXTD=YEAR: 2004
EXTT0=
EXTT1=
EXTT2=
EXTT3=
EXTT4=
EXTT5=
EXTT6=
EXTT7=
EXTT8=
EXTT9=
PLAYORDER=
